<svg width="40" height="40" viewBox="0 0 40 40" fill="none" xmlns="http://www.w3.org/2000/svg"><g style="mix-blend-mode:darken"><path d="M33.6402 34.4446C34.0815 34.4446 34.4426 34.0384 34.4426 33.5419V6.45939C34.4426 5.96288 34.0815 5.55664 33.6402 5.55664H6.35713C5.91579 5.55664 5.55469 5.96288 5.55469 6.45939V33.5419C5.55469 34.0384 5.91579 34.4446 6.35713 34.4446H33.6402Z" stroke="#222325" stroke-width="1.6" stroke-miterlimit="10" stroke-linejoin="round"/><path d="M26.4173 19.9999L26.0003 19.3172L24.8833 19.9995L26 20.6824L26.4173 19.9999ZM19.9975 26.4237L20.6797 26.0059L19.9977 24.8921L19.3154 26.0057L19.9975 26.4237ZM13.5737 20.0017L13.9918 20.6837L15.1064 20.0004L13.9906 19.319L13.5737 20.0017ZM19.3078 12.7103L18.7421 13.276L18.7421 13.276L19.3078 12.7103ZM19.9948 13.5824L19.3119 13.9992L19.9951 15.1185L20.6778 13.9989L19.9948 13.5824ZM18.4437 19.9975L18.0256 19.3155L16.911 19.9989L18.0268 20.6803L18.4437 19.9975ZM19.9981 21.55L19.3158 21.9678L19.9979 23.0816L20.6802 21.9679L19.9981 21.55ZM21.5514 19.9987L21.9684 20.6814L23.0854 19.9991L21.9688 19.3162L21.5514 19.9987ZM19.9958 18.4418L20.6786 18.025L19.9955 16.9056L19.3127 18.0253L19.9958 18.4418ZM26.8344 20.6826C27.1978 20.4605 27.5404 20.1927 27.8535 19.8795L26.7222 18.7481C26.4992 18.9711 26.2566 19.1606 26.0003 19.3172L26.8344 20.6826ZM27.8517 20.1191C27.5391 19.8065 27.1973 19.5391 26.8347 19.3174L26 20.6824C26.2557 20.8387 26.4977 21.0279 26.7203 21.2504L27.8517 20.1191ZM27.8517 27.8555C29.988 25.7192 29.988 22.2554 27.8517 20.1191L26.7203 21.2504C28.2318 22.762 28.2318 25.2126 26.7203 26.7241L27.8517 27.8555ZM20.1152 27.8555C22.2516 29.9919 25.7153 29.9919 27.8517 27.8555L26.7203 26.7241C25.2088 28.2357 22.7581 28.2357 21.2466 26.7241L20.1152 27.8555ZM19.3153 26.8414C19.5367 27.203 19.8035 27.5438 20.1152 27.8555L21.2466 26.7241C21.0246 26.5022 20.8359 26.2608 20.6797 26.0059L19.3153 26.8414ZM19.3154 26.0057C19.1593 26.2604 18.9707 26.5015 18.749 26.7232L19.8804 27.8546C20.1918 27.5432 20.4584 27.2028 20.6796 26.8416L19.3154 26.0057ZM18.749 26.7232C17.2375 28.2347 14.7868 28.2347 13.2753 26.7232L12.1439 27.8546C14.2803 29.9909 17.744 29.9909 19.8804 27.8546L18.749 26.7232ZM13.2753 26.7232C11.7638 25.2117 11.7638 22.761 13.2753 21.2495L12.1439 20.1181C10.0076 22.2545 10.0076 25.7182 12.1439 27.8546L13.2753 26.7232ZM13.2753 21.2495C13.4967 21.0281 13.7375 20.8397 13.9918 20.6837L13.1555 19.3197C12.7949 19.5408 12.4549 19.8071 12.1439 20.1181L13.2753 21.2495ZM12.1371 19.8811C12.4504 20.1944 12.7931 20.4624 13.1567 20.6845L13.9906 19.319C13.7343 19.1624 13.4915 18.9728 13.2684 18.7497L12.1371 19.8811ZM12.1371 12.1447C10.0007 14.281 10.0007 17.7447 12.1371 19.8811L13.2684 18.7497C11.7569 17.2382 11.7569 14.7875 13.2684 13.276L12.1371 12.1447ZM19.8735 12.1447C17.7371 10.0083 14.2734 10.0083 12.1371 12.1447L13.2684 13.276C14.78 11.7645 17.2306 11.7645 18.7421 13.276L19.8735 12.1447ZM20.6777 13.1656C20.4554 12.8015 20.1872 12.4583 19.8735 12.1447L18.7421 13.276C18.9655 13.4994 19.1553 13.7424 19.3119 13.9992L20.6777 13.1656ZM20.1171 12.1431C19.8029 12.4573 19.5342 12.8011 19.3118 13.1659L20.6778 13.9989C20.8347 13.7417 21.0247 13.4982 21.2485 13.2744L20.1171 12.1431ZM27.8535 12.1431C25.7172 10.0067 22.2535 10.0067 20.1171 12.1431L21.2485 13.2744C22.76 11.7629 25.2106 11.7629 26.7222 13.2744L27.8535 12.1431ZM27.8535 19.8795C29.9899 17.7431 29.9899 14.2794 27.8535 12.1431L26.7222 13.2744C28.2337 14.786 28.2337 17.2366 26.7222 18.7481L27.8535 19.8795ZM18.0268 20.6803C18.2832 20.8369 18.5259 21.0264 18.749 21.2495L19.8804 20.1181C19.567 19.8048 19.2243 19.5369 18.8607 19.3148L18.0268 20.6803ZM18.749 21.2495C18.9709 21.4715 19.1597 21.7129 19.3158 21.9678L20.6803 21.1322C20.4589 20.7707 20.1921 20.4299 19.8804 20.1181L18.749 21.2495ZM20.1152 20.1191C19.8038 20.4305 19.5372 20.7709 19.3159 21.1321L20.6802 21.9679C20.8362 21.7133 21.0248 21.4722 21.2466 21.2504L20.1152 20.1191ZM21.1344 19.316C20.7709 19.538 20.4284 19.8059 20.1152 20.1191L21.2466 21.2504C21.4696 21.0274 21.7122 20.838 21.9684 20.6814L21.1344 19.316ZM20.1171 19.8795C20.4296 20.192 20.7714 20.4595 21.134 20.6812L21.9688 19.3162C21.7131 19.1599 21.471 18.9707 21.2485 18.7481L20.1171 19.8795ZM19.3129 18.8585C19.5352 19.2226 19.8034 19.5658 20.1171 19.8795L21.2485 18.7481C21.0251 18.5248 20.8353 18.2817 20.6786 18.025L19.3129 18.8585ZM19.8735 19.8811C20.1877 19.5669 20.4564 19.2231 20.6788 18.8582L19.3127 18.0253C19.1559 18.2825 18.9659 18.526 18.7421 18.7497L19.8735 19.8811ZM18.8619 20.6795C19.2225 20.4584 19.5625 20.1921 19.8735 19.8811L18.7421 18.7497C18.5207 18.9712 18.2799 19.1596 18.0256 19.3155L18.8619 20.6795Z" fill="#222325"/><rect x="15.834" y="16" width="8" height="8" fill="white"/><circle cx="19.9971" cy="20" r="2.51424" transform="rotate(-45 19.9971 20)" fill="#222325"/><rect x="3.47422" y="3.47422" width="3.41907" height="3.41907" fill="white" stroke="#222325" stroke-width="1.2" stroke-linejoin="round"/><rect x="33.107" y="3.47422" width="3.41907" height="3.41907" fill="white" stroke="#222325" stroke-width="1.2" stroke-linejoin="round"/><rect x="3.47422" y="33.1061" width="3.41907" height="3.41907" fill="white" stroke="#222325" stroke-width="1.2" stroke-linejoin="round"/><rect x="33.107" y="33.1061" width="3.41907" height="3.41907" fill="white" stroke="#222325" stroke-width="1.2" stroke-linejoin="round"/></g></svg>