<svg width="41" height="40" viewBox="0 0 41 40" fill="none" xmlns="http://www.w3.org/2000/svg"><g style="mix-blend-mode:darken" clip-path="url(#clip0_2578_16595)"><path fill-rule="evenodd" clip-rule="evenodd" d="M1.98401 4.12616C2.61882 3.44903 3.49389 3.05566 4.42086 3.05566H19.0045C19.9315 3.05566 20.8065 3.44903 21.4413 4.12616C22.0741 4.80114 22.4195 5.70378 22.4195 6.6327V14.0987H20.4507V6.6327C20.4507 6.18641 20.2839 5.77015 20.005 5.4727C19.7282 5.17739 19.3668 5.02445 19.0045 5.02445H4.42086C4.05855 5.02445 3.69716 5.17739 3.42031 5.4727C3.14145 5.77015 2.97465 6.18641 2.97465 6.6327V20.8923C2.97465 21.3386 3.14145 21.7548 3.42031 22.0523C3.69716 22.3476 4.05855 22.5005 4.42086 22.5005H15.1277V24.4693H4.42086C3.49389 24.4693 2.61882 24.0759 1.98401 23.3988C1.35122 22.7238 1.00586 21.8212 1.00586 20.8923V6.6327C1.00586 5.70378 1.35122 4.80114 1.98401 4.12616Z" fill="#222325" stroke="white" stroke-width="0.6" stroke-miterlimit="10" stroke-linecap="square"/><path fill-rule="evenodd" clip-rule="evenodd" d="M22.0263 18.8565C21.664 18.8565 21.3026 19.0094 21.0258 19.3047C20.7469 19.6022 20.5801 20.0184 20.5801 20.4647V34.7243C20.5801 35.1706 20.7469 35.5868 21.0258 35.8843C21.3026 36.1796 21.664 36.3325 22.0263 36.3325H36.61C36.9723 36.3325 37.3337 36.1796 37.6105 35.8843C37.8894 35.5868 38.0562 35.1706 38.0562 34.7243V20.4647C38.0562 20.0184 37.8894 19.6022 37.6105 19.3047C37.3337 19.0094 36.9723 18.8565 36.61 18.8565H22.0263ZM19.5895 17.9582C20.2243 17.2811 21.0994 16.8877 22.0263 16.8877H36.61C37.5369 16.8877 38.412 17.2811 39.0468 17.9582C39.6796 18.6332 40.025 19.5358 40.025 20.4647V34.7243C40.025 35.6532 39.6796 36.5559 39.0468 37.2308C38.412 37.908 37.5369 38.3013 36.61 38.3013H22.0263C21.0994 38.3013 20.2243 37.908 19.5895 37.2308C18.9567 36.5559 18.6113 35.6532 18.6113 34.7243V20.4647C18.6113 19.5358 18.9567 18.6332 19.5895 17.9582Z" fill="#222325" stroke="white" stroke-width="0.6" stroke-miterlimit="10" stroke-linecap="square"/><path fill-rule="evenodd" clip-rule="evenodd" d="M31.9514 32.8855H34.1801L30.2414 22.665H28.2359L24.2578 32.8855H26.4871L27.5602 30.0253H30.8908L31.9514 32.8855ZM28.2358 28.1967L29.231 25.5214L30.2171 28.1967H28.2358Z" fill="#222325" stroke="white" stroke-width="0.4" stroke-miterlimit="10" stroke-linecap="square"/><path d="M17.2518 11.3351C16.7321 11.2879 16.2715 11.2643 15.5758 11.2643C15.4086 12.0544 15.1386 12.8192 14.7727 13.5393C14.4229 14.2309 13.9824 14.873 13.4628 15.4486C14.7092 16.177 16.0834 16.6609 17.5116 16.8744C17.006 17.5288 16.6111 18.2614 16.3424 19.0431C14.731 18.591 13.2096 17.8654 11.8447 16.898C10.4154 17.8857 8.82589 18.6194 7.14634 19.0667C6.89356 18.3107 6.51022 17.6046 6.01367 16.9805C7.49013 16.7144 8.90843 16.1919 10.2042 15.4368C9.60569 14.7855 9.09397 14.0597 8.68177 13.2774C8.33997 12.6361 8.06681 11.9605 7.86681 11.262C7.16996 11.262 6.76957 11.2856 6.17903 11.3328V9.20172C6.74738 9.26277 7.31883 9.29034 7.89043 9.28427H10.4995V8.57668C10.5011 8.33156 10.4774 8.08693 10.4286 7.84668H12.8014C12.7539 8.08313 12.7302 8.32372 12.7306 8.56489V9.28427H15.5392C16.1112 9.29065 16.6831 9.26308 17.2518 9.20172V11.3351ZM10.1333 11.2643C10.4389 12.3376 11.0071 13.318 11.7869 14.1171C12.5047 13.3007 13.0116 12.3213 13.2632 11.2643H10.1333Z" fill="#222325" stroke="white" stroke-width="0.4" stroke-miterlimit="10" stroke-linecap="square"/></g><defs><clipPath id="clip0_2578_16595"><rect width="40" height="40" fill="white" transform="translate(0.666016)"/></clipPath></defs></svg>